<mxfile host="65bd71144e">
    <diagram id="kLYLkq-XpZl8NvvChK1a" name="Page-1">
        <mxGraphModel dx="346" dy="221" grid="1" gridSize="10" guides="1" tooltips="1" connect="1" arrows="1" fold="1" page="1" pageScale="1" pageWidth="850" pageHeight="1100" math="0" shadow="0">
            <root>
                <mxCell id="0"/>
                <mxCell id="1" parent="0"/>
                <mxCell id="8" value="d" style="swimlane;html=1;startSize=20;horizontal=0;childLayout=flowLayout;flowOrientation=west;resizable=0;interRankCellSpacing=50;containerType=tree;" vertex="1" parent="1">
                    <mxGeometry x="20" y="40" width="460" height="150" as="geometry">
                        <mxRectangle x="20" y="40" width="30" height="30" as="alternateBounds"/>
                    </mxGeometry>
                </mxCell>
                <mxCell id="9" value="Start" style="whiteSpace=wrap;html=1;" vertex="1" parent="8">
                    <mxGeometry x="40" y="55" width="100" height="40" as="geometry"/>
                </mxCell>
                <mxCell id="10" value="Task" style="whiteSpace=wrap;html=1;" vertex="1" parent="8">
                    <mxGeometry x="190" y="20" width="100" height="40" as="geometry"/>
                </mxCell>
                <mxCell id="11" value="" style="html=1;curved=1;noEdgeStyle=1;orthogonal=1;" edge="1" parent="8" source="9" target="10">
                    <mxGeometry relative="1" as="geometry">
                        <Array as="points">
                            <mxPoint x="152" y="67.5"/>
                            <mxPoint x="178" y="40"/>
                        </Array>
                    </mxGeometry>
                </mxCell>
                <mxCell id="12" value="Task" style="whiteSpace=wrap;html=1;" vertex="1" parent="8">
                    <mxGeometry x="190" y="90" width="100" height="40" as="geometry"/>
                </mxCell>
                <mxCell id="13" value="" style="html=1;curved=1;noEdgeStyle=1;orthogonal=1;" edge="1" parent="8" source="9" target="12">
                    <mxGeometry relative="1" as="geometry">
                        <Array as="points">
                            <mxPoint x="152" y="82.5"/>
                            <mxPoint x="178" y="110"/>
                        </Array>
                    </mxGeometry>
                </mxCell>
                <mxCell id="14" value="End" style="whiteSpace=wrap;html=1;" vertex="1" parent="8">
                    <mxGeometry x="340" y="55" width="100" height="40" as="geometry"/>
                </mxCell>
                <mxCell id="15" value="" style="html=1;curved=1;noEdgeStyle=1;orthogonal=1;" edge="1" parent="8" source="10" target="14">
                    <mxGeometry relative="1" as="geometry">
                        <Array as="points">
                            <mxPoint x="302" y="40"/>
                            <mxPoint x="328" y="67.5"/>
                        </Array>
                    </mxGeometry>
                </mxCell>
                <mxCell id="16" value="" style="html=1;curved=1;noEdgeStyle=1;orthogonal=1;" edge="1" parent="8" source="12" target="14">
                    <mxGeometry relative="1" as="geometry">
                        <Array as="points">
                            <mxPoint x="302" y="110"/>
                            <mxPoint x="328" y="82.5"/>
                        </Array>
                    </mxGeometry>
                </mxCell>
            </root>
        </mxGraphModel>
    </diagram>
</mxfile>